<?xml version="1.0" encoding="UTF-8"?>
<svg width="100pt" height="100pt" version="1.1" viewBox="0 0 100 100" xmlns="http://www.w3.org/2000/svg">
 <g>
  <path d="m50 89.699 0.80078-1.1016c1.0977-1.4961 26.199-36.098 26.199-50.598 0-14.898-12.102-27-27-27s-27 12.102-27 27c0 14.5 25.102 49.102 26.199 50.602zm0-76.699c13.801 0 25 11.199 25 25 0 12.5-20.602 42.102-25 48.301-4.3984-6.1992-25-35.801-25-48.301 0-13.801 11.199-25 25-25z"/>
  <path d="m59 37c0-5-4-9-9-9s-9 4-9 9 4 9 9 9 9-4 9-9zm-16 0c0-3.8984 3.1016-7 7-7s7 3.1016 7 7-3.1016 7-7 7-7-3.1016-7-7z"/>
 </g>
</svg>
